<svg width="41" height="20" viewBox="0 0 41 20" fill="none" xmlns="http://www.w3.org/2000/svg">
<path d="M10.1962 0.00761822C11.1031 0.00761822 12.0002 0.464711 12.7124 1.16994L17.141 6.58432C17.4408 6.31006 17.8357 6.1577 18.2449 6.15987C19.3247 6.18817 20.1879 7.05991 20.1934 8.13082V16.5707C20.1934 18.4024 18.5994 20 16.7428 20H8.20834C6.587 20 5.57941 18.1205 6.62857 16.9919L1.15737 12.6049C-0.0985676 11.3631 -0.547117 9.5293 0.912309 8.08293L8.17661 0.889155C8.69956 0.331937 9.43036 0.0108833 10.1984 0" fill="#E40046"/>
<path fill-rule="evenodd" clip-rule="evenodd" d="M6.13784 9.46965L5.84415 9.41446H5.8447C5.80771 9.40244 5.80771 9.38878 5.81931 9.35654L6.03847 8.84451C6.05593 8.80295 6.0762 8.80569 6.10495 8.80959C6.11438 8.81086 6.12472 8.81226 6.13618 8.81226L6.47624 8.87456C6.50163 8.88385 6.51819 8.90243 6.50163 8.92757L6.21015 9.44452C6.18421 9.46965 6.17261 9.46965 6.13784 9.46965H6.13784ZM9.7129 9.77383C9.45973 9.68749 9.11955 9.68203 8.92802 9.68203C8.55185 9.67547 8.19939 9.86236 7.99641 10.176V9.80225C7.976 9.70498 7.8872 9.63613 7.78681 9.6405H7.08797C6.9749 9.6394 6.88224 9.72902 6.88058 9.84105V9.84323V11.9198C6.88058 12.2564 6.72228 12.746 6.18174 12.746C5.40843 12.746 5.4669 11.823 5.4669 11.823V9.8017C5.45808 9.70115 5.37038 9.62574 5.26889 9.63121H4.55626C4.45477 9.62356 4.36651 9.69897 4.35934 9.79952C4.35824 9.81263 4.35934 9.82574 4.36045 9.83885L4.36045 9.83886V11.7356C4.36045 12.7023 4.53971 13.3094 5.17346 13.5471C5.42609 13.6356 5.69305 13.6772 5.96056 13.6695C6.33728 13.6761 6.68974 13.4881 6.89216 13.1733V13.5171C6.90981 13.6154 6.99917 13.6848 7.09956 13.6788H7.7984C7.91147 13.6777 8.00303 13.5875 8.00579 13.4755V11.4312C8.00579 11.0919 8.15968 10.6006 8.70463 10.6006C9.47573 10.6006 9.41947 11.5236 9.41947 11.5236V13.5493C9.41947 13.6324 9.44484 13.6668 9.50331 13.6783H10.3676C10.5099 13.6783 10.5259 13.6553 10.5259 13.5444V11.5875C10.5259 10.6208 10.3467 10.0137 9.7129 9.77383ZM10.9493 13.6949H11.7225C11.867 13.6949 11.888 13.6719 11.888 13.561V9.77241C11.888 9.66148 11.867 9.63853 11.7225 9.63853H10.9493C10.8379 9.63853 10.7888 9.66148 10.7888 9.77241V13.561C10.7888 13.6719 10.8374 13.6949 10.9493 13.6949ZM18.7036 13.4941C18.1939 13.6963 17.6472 13.7914 17.0989 13.7733C15.7362 13.7733 15.333 13.217 15.333 12.5203C15.333 11.7471 15.8477 11.1777 16.9311 11.1777H17.7653V11.0574C17.7653 10.7804 17.6742 10.5246 17.106 10.5246C16.7458 10.5296 16.3878 10.5777 16.0391 10.6678C15.9089 10.6979 15.8714 10.6678 15.8482 10.5711L15.7269 10.0449C15.6965 9.93174 15.7269 9.90387 15.8035 9.87436C16.2741 9.71753 16.7679 9.63939 17.2638 9.64376C18.3611 9.64376 18.8642 10.105 18.8642 11.0279V13.2017C18.8824 13.3236 18.8167 13.4422 18.7036 13.4925V13.4941ZM17.1568 11.905C16.8798 11.905 16.4578 11.9558 16.4578 12.4356C16.4578 12.7886 16.7165 12.9088 17.1193 12.9088C17.3328 12.9116 17.5457 12.8788 17.7482 12.8121V11.9055H17.1562L17.1568 11.905ZM14.9529 12.6287C15.0831 12.5778 15.1112 12.5871 15.1509 12.6981L15.3628 13.2609C15.4163 13.3604 15.4234 13.4106 15.307 13.4707C14.8729 13.6828 14.3935 13.7882 13.9097 13.7779C12.7219 13.7779 12.0925 13.0855 12.0925 11.7379C12.0925 10.3904 12.819 9.6614 13.977 9.6614C14.3902 9.65429 14.8001 9.74118 15.1741 9.91495C15.3043 9.97506 15.3092 10.0051 15.2579 10.1248L15.0461 10.704C14.9948 10.815 14.9551 10.8079 14.8133 10.7685C14.5711 10.6876 14.3185 10.6428 14.063 10.6346C13.4645 10.6346 13.2361 11.1445 13.2361 11.7374C13.2361 12.3303 13.4154 12.8013 14.084 12.8013C14.3824 12.7948 14.6776 12.7358 14.9551 12.6259L14.9529 12.6287Z" fill="white"/>
<path d="M21.1106 8.6C21.1106 8.03995 21.1106 7.75992 21.2202 7.54601C21.3165 7.35785 21.4703 7.20487 21.6595 7.10899C21.8745 7 22.156 7 22.719 7H39.036C39.599 7 39.8805 7 40.0955 7.10899C40.2846 7.20487 40.4384 7.35785 40.5348 7.54601C40.6444 7.75992 40.6444 8.03995 40.6444 8.6V17.5794C40.6444 18.1394 40.6444 18.4194 40.5348 18.6334C40.4384 18.8215 40.2846 18.9745 40.0955 19.0704C39.8805 19.1794 39.599 19.1794 39.036 19.1794H22.719C22.156 19.1794 21.8745 19.1794 21.6595 19.0704C21.4703 18.9745 21.3165 18.8215 21.2202 18.6334C21.1106 18.4194 21.1106 18.1394 21.1106 17.5794V8.6Z" fill="#3DAE2B"/>
<path d="M38.5821 15.3213L37.9935 14.7369L37.0931 13.8444L37.2102 13.8183C38.0121 13.6518 38.5515 13.149 38.5515 12.1848C38.5515 11.0594 37.603 10.4336 36.6544 10.4315H34.6743C34.6557 10.4326 34.6371 10.4369 34.6196 10.4456C34.6053 10.4543 34.5988 10.4761 34.5988 10.5131V15.4192C34.6053 15.453 34.6152 15.4736 34.6294 15.4802C34.6524 15.4889 34.6754 15.49 34.6983 15.4856H34.7104L35.5331 15.367C35.5462 15.3659 35.5604 15.3615 35.5725 15.355C35.5878 15.3463 35.5932 15.3235 35.5932 15.2886V11.3957H36.6927C37.1675 11.3957 37.5811 11.7309 37.5811 12.176C37.5811 12.6212 37.2507 12.8464 36.7813 12.9607C36.3109 13.0739 36.0845 13.4145 36.0823 13.7737C36.0866 14.0207 36.1818 14.2569 36.3503 14.4387C36.4324 14.5442 36.5221 14.6433 36.6194 14.7369C36.6216 14.739 36.6238 14.7412 36.6271 14.7434L37.9443 16.0744C38.0263 16.1266 38.1226 16.1538 38.22 16.1538C38.4968 16.1549 38.721 15.9351 38.7254 15.6608C38.7276 15.5335 38.6762 15.4105 38.5832 15.3235M27.8924 14.0479C27.8093 13.9957 27.713 13.9674 27.6145 13.9674C27.4778 13.9674 27.3487 14.0229 27.2546 14.1209C27.2262 14.1557 27.1616 14.2156 27.1365 14.2395C26.794 14.5562 26.3422 14.7325 25.8729 14.7325C24.8445 14.7314 24.0108 13.9021 24.0097 12.878C24.013 11.8572 24.8467 11.0311 25.8729 11.0311C26.2142 11.0311 26.6802 11.0921 27.0905 11.4795C27.0949 11.4839 27.0993 11.4871 27.1047 11.4893C27.1266 11.5002 27.1507 11.5024 27.1736 11.4958L28.0532 11.3674C28.1419 11.3544 28.0992 11.2869 28.0992 11.2869C27.9427 11.0039 27.2907 10.0103 25.7853 10.0244C24.1946 10.0397 23.0043 11.2804 22.989 12.8943C22.9912 13.5724 23.2352 14.2275 23.6782 14.7423C24.2253 15.3844 25.0272 15.7555 25.8729 15.7577C26.6649 15.7555 27.4198 15.4334 27.9668 14.8631C27.9974 14.825 28.0237 14.7847 28.0467 14.7423C28.0981 14.6596 28.1254 14.5638 28.1276 14.467C28.1254 14.2983 28.0379 14.1415 27.8957 14.0501M33.3374 10.2421C32.926 10.2421 32.6908 10.5316 32.5092 10.9114L31.3856 13.2894C31.3856 13.2894 31.3747 13.3177 31.3572 13.3177C31.3397 13.3177 31.3266 13.2894 31.3266 13.2894L30.366 11.6634L30.0695 11.1574C30.052 11.1291 30.0345 11.1128 30.017 11.1117C30.0083 11.1106 29.9984 11.1106 29.9897 11.1117L28.6768 11.2956C28.6648 11.2989 28.6528 11.3032 28.6418 11.3097C28.6298 11.3174 28.6232 11.3402 28.6232 11.3761V15.6619C28.6298 15.9296 28.8508 16.144 29.1199 16.144C29.389 16.143 29.61 15.9296 29.6177 15.6619V12.3687L31.0476 14.7434L31.3539 15.2495C31.3594 15.2603 31.3692 15.2669 31.3802 15.268C31.3944 15.268 31.4031 15.2495 31.4031 15.2495L31.6515 14.7434L33.0923 11.8387V15.6423C33.0978 15.675 33.1076 15.6957 33.124 15.7033C33.1426 15.7098 33.1623 15.712 33.182 15.7098H33.1886L34.0189 15.5912C34.0354 15.5901 34.0507 15.5847 34.0649 15.5781C34.0813 15.5683 34.0846 15.5477 34.0868 15.5172V10.9909C34.0791 10.5795 33.7454 10.2486 33.3319 10.2421" fill="white"/>
</svg>