<svg width="13" height="18" viewBox="0 0 13 18" fill="none" xmlns="http://www.w3.org/2000/svg">
<path d="M0.89209 0H12.8999V18H0.89209V0Z" fill="#ADD500"/>
<path d="M8.80576 9.68903C8.80589 9.57345 8.84028 9.4605 8.90459 9.36446C8.96889 9.26842 9.06022 9.1936 9.16704 9.14945C9.27386 9.10531 9.39137 9.09383 9.50472 9.11646C9.61806 9.13908 9.72215 9.1948 9.80384 9.27657C9.88552 9.35835 9.94112 9.4625 9.96362 9.57587C9.98613 9.68924 9.97453 9.80674 9.93027 9.91351C9.88601 10.0203 9.81109 10.1115 9.71498 10.1757C9.61887 10.2399 9.50586 10.2742 9.39028 10.2742C9.31346 10.2742 9.23741 10.2591 9.16645 10.2296C9.09549 10.2002 9.03103 10.1571 8.97674 10.1028C8.92245 10.0484 8.87941 9.98391 8.85008 9.91292C8.82074 9.84193 8.80568 9.76585 8.80576 9.68903ZM4.4039 7.66299H6.34147L6.45774 7.12285L7.05089 4.23598C7.23392 3.41796 7.40225 2.70502 8.02479 2.10835C8.44416 1.69504 9.00846 1.46201 9.59726 1.45898C9.59726 1.45898 9.82917 1.46058 9.97515 1.48038L9.93169 1.67459C9.76169 1.64993 9.58903 1.64993 9.41903 1.67459C9.19575 1.72633 8.99387 1.84568 8.84089 2.01636C8.51701 2.34089 8.39915 2.83438 8.1928 3.71661L7.46772 7.15032L7.35816 7.66139H9.5139L9.4318 7.95684H7.29492L6.05656 13.7462C5.87449 14.5636 5.70519 15.2769 5.08297 15.8739C4.66044 16.2886 4.09231 16.5213 3.50026 16.5223L3.29712 16.5181L3.33258 16.3287C3.39508 16.3312 3.45767 16.3286 3.51976 16.321C3.66539 16.3093 3.80697 16.2673 3.93544 16.1977C4.06392 16.1281 4.17647 16.0325 4.26591 15.917C4.57223 15.5244 4.7067 15.1469 4.914 14.265L6.27631 7.95716H4.32245L4.4039 7.66299Z" fill="white"/>
</svg>
