<svg xmlns="http://www.w3.org/2000/svg" width="35" height="32" fill="none"><g clip-path="url(#a)"><path fill="#343E49" d="M35 4.5H7.375l-1-4H.25v2.125h4.5l5.375 22.75h3.75c-1 .5-1.75 1.625-1.75 2.875 0 1.875 1.5 3.375 3.375 3.375s3.25-1.5 3.25-3.375c0-1.25-.75-2.375-1.75-2.875h7.25c-1 .5-1.75 1.625-1.75 2.875 0 1.875 1.5 3.375 3.375 3.375s3.25-1.5 3.25-3.375c0-1.25-.75-2.375-1.75-2.875H31.5V23.25H11.75L11 20.375h20.75L35 4.5ZM15.375 29.75c-.875 0-1.5-.625-1.5-1.5s.625-1.5 1.5-1.5 1.5.625 1.5 1.5-.625 1.5-1.5 1.5Zm10.375 0c-.875 0-1.5-.625-1.5-1.5s.625-1.5 1.5-1.5 1.5.625 1.5 1.5-.75 1.5-1.5 1.5Zm-15.125-11.5-2.75-11.5H32.5l-2.25 11.5H10.625Z"/></g><defs><clipPath id="a"><path fill="#fff" d="M0 0h35v32H0z"/></clipPath></defs></svg>